<svg width="23" height="22" viewBox="0 0 23 22" fill="none" xmlns="http://www.w3.org/2000/svg">
<path d="M19.5026 9.00017V6.33287C19.5026 4.8605 18.309 3.66685 16.8366 3.66685H16.8359V9.00017H19.5026Z" stroke="black" stroke-width="2" stroke-miterlimit="10" stroke-linecap="round" stroke-linejoin="round"/>
<path d="M16.8307 3.66663C16.8307 2.19397 15.6368 0.99995 14.164 0.99995H8.8307C7.35796 0.99995 6.16406 2.19397 6.16406 3.66663V18.3333H16.8307V3.66663Z" stroke="black" stroke-width="2" stroke-miterlimit="10" stroke-linecap="round" stroke-linejoin="round"/>
<path d="M8.83105 7.66667H14.1644V3.66667H8.83105V7.66667Z" stroke="black" stroke-width="2" stroke-miterlimit="10" stroke-linecap="round" stroke-linejoin="round"/>
<path d="M19.4971 21C19.4971 20.2927 19.2161 19.6147 18.716 19.1144C18.2159 18.6143 17.5377 18.3333 16.8304 18.3333H6.16375C5.45653 18.3333 4.77823 18.6143 4.27815 19.1144C3.77802 19.6147 3.49707 20.2927 3.49707 21H19.4971Z" stroke="black" stroke-width="2" stroke-miterlimit="10" stroke-linecap="round" stroke-linejoin="round"/>
<path d="M11.5029 10.3332C11.5029 10.3332 9.50293 11.9998 9.50293 13.6665C9.50293 14.7705 10.3991 15.6665 11.5029 15.6665C12.6068 15.6665 13.5029 14.7705 13.5029 13.6665C13.5029 11.9998 11.5029 10.3332 11.5029 10.3332Z" stroke="black" stroke-width="2" stroke-miterlimit="10" stroke-linecap="round" stroke-linejoin="round"/>
<path d="M16.8359 14.3332C16.8359 15.0695 17.4329 15.6665 18.1693 15.6665C18.9057 15.6665 19.5026 15.0695 19.5026 14.3332V8.99983" stroke="black" stroke-width="2" stroke-miterlimit="10" stroke-linecap="round" stroke-linejoin="round"/>
<path d="M1.5 21H21.5" stroke="black" stroke-width="2" stroke-miterlimit="10" stroke-linecap="round" stroke-linejoin="round"/>
</svg>
